<svg width="462" height="603" viewBox="0 0 462 603" fill="none" xmlns="http://www.w3.org/2000/svg">
<path fill-rule="evenodd" clip-rule="evenodd" d="M378.768 237.741L375.772 237.899L374.345 210.805C373.934 210.754 373.531 210.673 373.139 210.565L361.251 233.657L358.584 232.284L370.434 209.266C370.068 209.002 369.724 208.71 369.405 208.392L347.4 223.371L345.712 220.891L367.684 205.935C367.367 205.248 367.138 204.511 367.013 203.737L339.95 204.814L339.831 201.817L367.06 200.732C367.154 200.252 367.289 199.784 367.461 199.335L342.911 187.104L344.249 184.419L369.017 196.759C369.318 196.417 369.646 196.099 369.998 195.808L353.995 172.651L356.463 170.945L372.626 194.333C372.899 194.239 373.179 194.158 373.465 194.092L371.985 165.999L374.981 165.841L376.461 193.934C377.036 194.005 377.595 194.135 378.13 194.316L391.54 168.269L394.208 169.642L380.757 195.768C381.036 195.994 381.301 196.238 381.549 196.497L405.232 180.376L406.92 182.856L383.208 198.997C383.358 199.344 383.486 199.704 383.589 200.074L411.774 198.952L411.893 201.95L383.875 203.065C383.847 203.412 383.798 203.754 383.729 204.089L408.694 216.527L407.356 219.212L382.607 206.881C382.404 207.205 382.18 207.514 381.936 207.807L397.396 230.178L394.928 231.883L379.63 209.746C378.926 210.15 378.157 210.457 377.341 210.647L378.768 237.741Z" fill="#83A17D"/>
<path d="M1.08698 71.0382C6.27459 104.465 35.2785 163.012 109.793 129.789C202.937 88.2599 207.053 93.5152 252.41 227.853C297.767 362.19 366.734 381.095 400.317 342.088C428.869 308.923 413.877 214.159 325.442 243.59C237.007 273.021 246.465 482.497 414.188 540.54" stroke="url(#paint0_linear_2_14)"/>
<defs>
<linearGradient id="paint0_linear_2_14" x1="538.003" y1="621.093" x2="63.6537" y2="117.248" gradientUnits="userSpaceOnUse">
<stop offset="0.203415" stop-color="#143C3C"/>
<stop offset="0.553176" stop-color="white"/>
<stop offset="1" stop-opacity="0"/>
</linearGradient>
</defs>
</svg>
