<svg width="591" height="363" viewBox="0 0 591 363" fill="none" xmlns="http://www.w3.org/2000/svg">
<path d="M590 362.016C556 363.516 492.5 346.616 510.5 267.016C533 167.516 527 164.516 385.5 146.516C244 128.516 213.5 66.5002 243.5 24.016C268.753 -11.7445 367 -14.4839 355.5 78.0161C344 170.516 135.5 202.516 45 49.5162" stroke="url(#paint0_linear_1_13)"/>
<path fill-rule="evenodd" clip-rule="evenodd" d="M49.2395 9.20083L46.2797 8.71129L41.1072 39.9849L29.2387 10.9603L26.4619 12.0958L37.638 39.4273L14.3786 20.666L12.4951 23.0011L35.8492 41.8387L6.23884 36.5503L5.71138 39.5035L35.5337 44.8298L6.99346 56.2661L8.10933 59.0509L36.7208 47.586L16.5704 71.9028L18.8804 73.817L39.6587 48.7424L34.5308 79.7462L37.4906 80.2358L42.3388 50.9231L53.7132 78.7394L56.49 77.6039L44.826 49.0795L68.5365 68.2046L70.42 65.8695L46.8391 46.849L76.5898 52.1624L77.1173 49.2092L46.3731 43.7183L74.9433 32.2699L73.8274 29.4851L46.5634 40.4101L64.8207 18.3779L62.5107 16.4637L44.4293 38.2837L49.2395 9.20083Z" fill="#83A17D"/>
<defs>
<linearGradient id="paint0_linear_1_13" x1="-58.9999" y1="-56.0001" x2="530" y2="313" gradientUnits="userSpaceOnUse">
<stop/>
<stop offset="0.553176" stop-color="white"/>
<stop offset="1" stop-opacity="0"/>
</linearGradient>
</defs>
</svg>
