<svg width="613" height="402" viewBox="0 0 613 402" fill="none" xmlns="http://www.w3.org/2000/svg">
<path d="M1.00631 38.5814C34.8155 34.6838 99.3505 47.0566 87.0175 127.729C71.6013 228.57 77.7979 231.139 220.216 239.1C362.634 247.061 377.985 308.129 370.513 351.264C363.041 394.4 250.041 398.391 254.979 305.31C259.917 212.228 465.637 165.582 566.717 311.808" stroke="url(#paint0_linear_1_26)"/>
<path fill-rule="evenodd" clip-rule="evenodd" d="M570.872 354.135L567.885 353.855L570.41 326.841C570.011 326.731 569.624 326.592 569.252 326.428L554.134 347.548L551.694 345.802L566.764 324.75C566.441 324.436 566.143 324.097 565.874 323.737L541.925 335.358L540.616 332.659L564.528 321.055C564.314 320.33 564.195 319.567 564.183 318.783L537.251 315.916L537.569 312.933L564.667 315.817C564.829 315.355 565.031 314.913 565.266 314.493L542.754 298.824L544.468 296.362L567.18 312.171C567.528 311.876 567.898 311.609 568.289 311.373L555.821 286.135L558.511 284.806L571.103 310.295C571.387 310.242 571.676 310.202 571.968 310.178L574.587 282.168L577.574 282.447L574.955 310.457C575.514 310.611 576.048 310.82 576.552 311.078L593.604 287.256L596.044 289.003L578.94 312.895C579.183 313.16 579.409 313.44 579.617 313.733L605.391 301.225L606.701 303.924L580.895 316.447C580.993 316.812 581.067 317.187 581.116 317.568L609.164 320.554L608.846 323.537L580.965 320.569C580.886 320.909 580.788 321.239 580.671 321.561L603.562 337.494L601.849 339.957L579.155 324.161C578.907 324.451 578.64 324.724 578.357 324.979L590.401 349.359L587.711 350.687L575.793 326.562C575.038 326.859 574.232 327.051 573.397 327.121L570.872 354.135Z" fill="#83A17D"/>
<defs>
<linearGradient id="paint0_linear_1_26" x1="677.91" y1="409.715" x2="64.3185" y2="83.2372" gradientUnits="userSpaceOnUse">
<stop/>
<stop offset="0.553176" stop-color="white"/>
<stop offset="1" stop-opacity="0"/>
</linearGradient>
</defs>
</svg>
